<?xml version="1.0" standalone="no"?>
<!DOCTYPE svg PUBLIC "-//W3C//DTD SVG 20010904//EN"
 "http://www.w3.org/TR/2001/REC-SVG-20010904/DTD/svg10.dtd">
<svg version="1.0" xmlns="http://www.w3.org/2000/svg"
 width="256.000000pt" height="256.000000pt" viewBox="0 0 256.000000 256.000000"
 preserveAspectRatio="xMidYMid meet">
<metadata>
Created by potrace 1.14, written by Peter Selinger 2001-2017
</metadata>
<g transform="translate(0.000000,256.000000) scale(0.100000,-0.100000)"
fill="#000000" stroke="none">
<path d="M511 1727 c-8 -10 -2 -52 24 -166 19 -84 35 -156 35 -162 0 -5 -36
-9 -80 -9 -79 0 -80 0 -80 -25 l0 -25 109 0 c74 0 111 4 113 12 2 6 -12 83
-32 170 l-37 158 43 0 44 0 69 -103 c67 -101 90 -121 147 -132 11 -2 263 -4
560 -4 l541 -1 29 -22 29 -23 -55 -5 c-47 -4 -55 -8 -55 -25 0 -18 8 -20 103
-25 88 -4 106 -8 118 -24 18 -25 18 -41 -2 -60 -13 -14 -47 -16 -219 -16 -174
0 -206 -2 -220 -16 -12 -12 -13 -19 -4 -30 9 -11 52 -14 208 -14 172 0 201 3
239 20 52 23 67 55 52 111 -12 45 -32 67 -68 76 -15 3 -45 25 -67 49 -25 26
-55 46 -80 53 -27 7 -219 11 -580 11 -453 0 -544 2 -561 14 -11 8 -49 57 -83
110 -47 70 -71 97 -93 105 -44 16 -133 14 -147 -2z"/>
<path d="M0 1365 l0 -25 115 0 115 0 0 25 0 25 -115 0 -115 0 0 -25z"/>
<path d="M1206 1218 c-41 -37 -217 -290 -214 -307 3 -13 21 -16 110 -16 l107
0 55 40 c131 96 326 251 331 265 13 32 -24 40 -196 40 -160 0 -169 -1 -193
-22z m140 -152 c-149 -117 -186 -135 -255 -124 -24 3 -27 -3 111 186 l39 52
125 0 126 0 -146 -114z"/>
</g>
</svg>
